# xmcd
#
# Track frame offsets:
#	150
#	16470
#	28700
#	39008
#	50025
#	62550
#	74652
#	84431
#	100512
#	115050
#
# Disc length: 1656 seconds
#
# Revision: 1
# Processed by: cddbd v1.5.2PL0 Copyright (c) Steve Scherf et al.
# Submitted via: audiograbber 1.83.01
#
DISCID=7906760a
DTITLE=Various Artist - Truck Drivin' Hits
DYEAR=2006
DGENRE=
TTITLE0=Merle Haggard - Ramblin' Fever
TTITLE1=Hank Williams - Lost Highway
TTITLE2=Faron Young - Live Fast, Love Hard, Die Young
TTITLE3=Dave Dudley - Trucker's Prayer
TTITLE4=Red Simpson - Roll Truck Roll
TTITLE5=Red Steagall - Truck Drivin' man
TTITLE6=Dennis Olson - Truck Drivin' Outlaw
TTITLE7=Ferlin Husky - Truck Driver's Blues
TTITLE8=Jonny Paycheck - I'm The Only Hell Mama Ever Raised
TTITLE9=Dave Dudley - Keep On Truckin'
EXTD=
EXTT0=
EXTT1=
EXTT2=
EXTT3=
EXTT4=
EXTT5=
EXTT6=
EXTT7=
EXTT8=
EXTT9=
PLAYORDER=
